<?xml version="1.0" standalone="no"?>
<!DOCTYPE svg PUBLIC "-//W3C//DTD SVG 20010904//EN"
 "http://www.w3.org/TR/2001/REC-SVG-20010904/DTD/svg10.dtd">
<svg version="1.0" xmlns="http://www.w3.org/2000/svg"
 width="700.000000pt" height="700.000000pt" viewBox="0 0 700.000000 700.000000"
 preserveAspectRatio="xMidYMid meet">
<metadata>
Created by potrace 1.11, written by Peter Selinger 2001-2013
</metadata>
<g transform="translate(0.000000,700.000000) scale(0.100000,-0.100000)"
fill="#000000" stroke="none">
<path d="M910 6384 c-42 -18 -68 -41 -86 -76 -35 -67 -24 -157 25 -209 54 -56
72 -59 400 -59 165 0 302 -4 305 -8 3 -5 7 -22 10 -38 3 -16 14 -69 25 -119
19 -82 87 -402 97 -450 12 -61 25 -123 30 -145 3 -14 7 -34 9 -45 3 -16 41
-194 80 -375 2 -8 10 -49 19 -90 8 -41 34 -160 56 -265 23 -104 54 -253 70
-330 16 -77 40 -194 55 -260 14 -66 27 -129 29 -140 17 -81 103 -484 126 -588
33 -146 61 -200 124 -241 l40 -26 1538 0 c1502 0 1540 0 1577 19 44 23 86 74
99 122 18 70 -24 160 -91 197 -30 16 -126 17 -1487 22 l-1455 5 -27 130 c-28
131 -34 161 -42 203 l-5 22 1601 0 1601 0 45 22 c62 31 87 74 117 203 56 236
127 541 131 565 3 14 18 79 34 145 16 66 43 181 60 255 59 261 91 395 101 430
13 49 68 294 75 336 13 80 -54 176 -138 199 -5 2 -925 3 -2046 4 l-2037 1 -44
208 c-67 316 -76 337 -155 373 -38 17 -73 19 -436 18 -329 0 -401 -2 -430 -15z
m4880 -953 c0 -5 -23 -105 -50 -223 -28 -117 -52 -222 -54 -233 -2 -11 -15
-67 -29 -125 -37 -153 -167 -711 -182 -780 -2 -8 -6 -27 -10 -42 l-7 -28
-1552 0 -1552 0 -18 88 c-9 48 -19 96 -22 107 -2 11 -6 31 -9 45 -6 30 -7 35
-39 182 -14 64 -27 127 -30 140 -2 13 -12 57 -21 98 -9 41 -18 84 -20 95 -4
29 -132 625 -140 658 l-7 27 1871 0 c1121 0 1871 -4 1871 -9z"/>
<path d="M2832 2785 c-111 -25 -207 -79 -291 -164 -126 -127 -182 -265 -176
-441 5 -163 59 -285 180 -405 120 -120 267 -177 440 -171 251 8 458 165 547
416 27 74 33 233 13 315 -17 67 -72 185 -107 229 -73 92 -190 173 -298 207
-84 27 -224 33 -308 14z m230 -366 c49 -26 81 -56 106 -99 23 -38 27 -57 27
-120 0 -54 -6 -85 -19 -109 -77 -143 -271 -173 -385 -60 -91 91 -91 245 0 337
23 22 60 48 83 56 47 18 151 15 188 -5z"/>
<path d="M4630 2785 c-203 -45 -388 -219 -445 -420 -91 -318 105 -661 426
-744 72 -19 218 -23 277 -7 12 3 32 8 43 11 88 19 240 124 304 210 47 62 99
173 113 240 10 46 10 220 -1 255 -2 8 -7 29 -12 45 -21 78 -100 203 -162 258
-20 18 -41 37 -48 43 -28 28 -166 93 -225 106 -86 19 -190 20 -270 3z m199
-355 c54 -15 110 -59 139 -109 23 -39 27 -57 27 -121 0 -53 -6 -85 -19 -109
-93 -173 -348 -170 -431 5 -59 124 5 285 129 328 47 16 113 19 155 6z"/>
</g>
</svg>
